<?xml version="1.0" encoding="UTF-8"?>
<!DOCTYPE svg PUBLIC "-//W3C//DTD SVG 1.1//EN" "http://www.w3.org/Graphics/SVG/1.1/DTD/svg11.dtd">
<svg xmlns="http://www.w3.org/2000/svg" version="1.1" viewBox="0 0 66 51" style="shape-rendering:geometricPrecision; text-rendering:geometricPrecision; image-rendering:optimizeQuality; fill-rule:evenodd; clip-rule:evenodd" xmlns:xlink="http://www.w3.org/1999/xlink">
<g><path style="opacity:1" fill="currentColor" d="M 22.5,-0.5 C 24.8333,-0.5 27.1667,-0.5 29.5,-0.5C 29.5,1.83333 29.5,4.16667 29.5,6.5C 31.8333,6.5 34.1667,6.5 36.5,6.5C 36.5,4.16667 36.5,1.83333 36.5,-0.5C 38.8333,-0.5 41.1667,-0.5 43.5,-0.5C 43.5,1.83333 43.5,4.16667 43.5,6.5C 45.8333,6.5 48.1667,6.5 50.5,6.5C 50.5,8.83333 50.5,11.1667 50.5,13.5C 52.2646,14.4614 54.2646,14.7947 56.5,14.5C 56.2053,16.7354 56.5386,18.7354 57.5,20.5C 59.2646,21.4614 61.2646,21.7947 63.5,21.5C 63.5,30.5 63.5,39.5 63.5,48.5C 61.5,48.5 59.5,48.5 57.5,48.5C 58.8333,42.5 56.5,40.1667 50.5,41.5C 50.5,43.8333 50.5,46.1667 50.5,48.5C 48.1667,48.5 45.8333,48.5 43.5,48.5C 43.5,46.1667 43.5,43.8333 43.5,41.5C 41.1667,41.5 38.8333,41.5 36.5,41.5C 36.5,43.8333 36.5,46.1667 36.5,48.5C 34.5328,48.2606 32.6995,48.5939 31,49.5C 29.6253,47.0632 29.1253,44.3965 29.5,41.5C 27.1667,41.5 24.8333,41.5 22.5,41.5C 22.5,43.8333 22.5,46.1667 22.5,48.5C 20.1667,48.5 17.8333,48.5 15.5,48.5C 15.5,46.1667 15.5,43.8333 15.5,41.5C 13.1667,41.5 10.8333,41.5 8.5,41.5C 8.5,43.8333 8.5,46.1667 8.5,48.5C 6.16667,48.5 3.83333,48.5 1.5,48.5C 1.5,39.1667 1.5,29.8333 1.5,20.5C 3.83333,20.5 6.16667,20.5 8.5,20.5C 8.5,18.1667 8.5,15.8333 8.5,13.5C 10.8333,13.5 13.1667,13.5 15.5,13.5C 15.5,11.1667 15.5,8.83333 15.5,6.5C 17.8333,6.5 20.1667,6.5 22.5,6.5C 22.5,4.16667 22.5,1.83333 22.5,-0.5 Z M 15.5,20.5 C 20.1667,20.5 24.8333,20.5 29.5,20.5C 29.5,22.8333 29.5,25.1667 29.5,27.5C 24.8333,27.5 20.1667,27.5 15.5,27.5C 15.5,25.1667 15.5,22.8333 15.5,20.5 Z M 36.5,20.5 C 40.8461,20.3343 45.1794,20.501 49.5,21C 50.4231,23.0408 50.7564,25.2075 50.5,27.5C 45.8333,27.5 41.1667,27.5 36.5,27.5C 36.5,25.1667 36.5,22.8333 36.5,20.5 Z"/></g>
<g><path style="opacity:1" fill="currentColor" d="M 50.5,13.5 C 52.8333,13.5 55.1667,13.5 57.5,13.5C 57.5,15.8333 57.5,18.1667 57.5,20.5C 56.5386,18.7354 56.2053,16.7354 56.5,14.5C 54.2646,14.7947 52.2646,14.4614 50.5,13.5 Z"/></g>
<g><path style="opacity:1" fill="currentColor" d="M 57.5,20.5 C 59.8333,20.5 62.1667,20.5 64.5,20.5C 64.8269,30.015 64.4936,39.3483 63.5,48.5C 63.5,39.5 63.5,30.5 63.5,21.5C 61.2646,21.7947 59.2646,21.4614 57.5,20.5 Z"/></g>
</svg>
